<?xml version="1.0" encoding="UTF-8" standalone="no"?>
<!-- Created with Inkscape (http://www.inkscape.org/) -->

<svg
   xmlns:dc="http://purl.org/dc/elements/1.1/"
   xmlns:cc="http://creativecommons.org/ns#"
   xmlns:rdf="http://www.w3.org/1999/02/22-rdf-syntax-ns#"
   xmlns:svg="http://www.w3.org/2000/svg"
   xmlns="http://www.w3.org/2000/svg"
   xmlns:xlink="http://www.w3.org/1999/xlink"
   xmlns:sodipodi="http://sodipodi.sourceforge.net/DTD/sodipodi-0.dtd"
   xmlns:inkscape="http://www.inkscape.org/namespaces/inkscape"
   width="210mm"
   height="297mm"
   viewBox="0 0 210 297"
   version="1.1"
   id="svg8"
   inkscape:version="0.92.4 (5da689c313, 2019-01-14)"
   sodipodi:docname="louse.svg">
  <defs
     id="defs2">
    <linearGradient
       id="linearGradient1458"
       inkscape:collect="always">
      <stop
         id="stop1454"
         offset="0"
         style="stop-color:#000000;stop-opacity:1;" />
      <stop
         id="stop1456"
         offset="1"
         style="stop-color:#000000;stop-opacity:0;" />
    </linearGradient>
    <linearGradient
       inkscape:collect="always"
       xlink:href="#linearGradient1458"
       id="linearGradient1321"
       gradientUnits="userSpaceOnUse"
       x1="-253.27087"
       y1="145.8784"
       x2="-4.9661613"
       y2="-104.5351"
       gradientTransform="matrix(0.63821178,1.0055028,-1.1910739,0.75631772,215.90115,-141.93567)" />
    <linearGradient
       inkscape:collect="always"
       xlink:href="#linearGradient1458"
       id="linearGradient1505"
       gradientUnits="userSpaceOnUse"
       x1="-253.27087"
       y1="145.8784"
       x2="-4.9661613"
       y2="-104.5351"
       gradientTransform="matrix(0.25318053,-0.07683722,0.07683722,0.25318053,271.95482,47.287138)" />
    <linearGradient
       inkscape:collect="always"
       xlink:href="#linearGradient1458"
       id="linearGradient1507"
       gradientUnits="userSpaceOnUse"
       x1="-253.27087"
       y1="145.8784"
       x2="-4.9661613"
       y2="-104.5351"
       gradientTransform="matrix(0.26458333,0,0,0.26458333,50.74721,73.927012)" />
    <linearGradient
       inkscape:collect="always"
       xlink:href="#linearGradient1458"
       id="linearGradient1511"
       gradientUnits="userSpaceOnUse"
       x1="-253.27087"
       y1="145.8784"
       x2="-4.9661613"
       y2="-104.5351"
       gradientTransform="matrix(0.26458333,0,0,0.26458333,9.5107426,115.19076)" />
    <linearGradient
       inkscape:collect="always"
       xlink:href="#linearGradient1458"
       id="linearGradient1513"
       gradientUnits="userSpaceOnUse"
       x1="-253.27087"
       y1="145.8784"
       x2="-4.9661613"
       y2="-104.5351"
       gradientTransform="matrix(0.26458333,0,0,0.26458333,9.5107426,115.19076)" />
    <linearGradient
       inkscape:collect="always"
       xlink:href="#linearGradient1458"
       id="linearGradient1521"
       gradientUnits="userSpaceOnUse"
       x1="-253.27087"
       y1="145.8784"
       x2="-4.9661613"
       y2="-104.5351"
       gradientTransform="matrix(0.26458333,0,0,0.26458333,9.5107426,115.19076)" />
  </defs>
  <sodipodi:namedview
     id="base"
     pagecolor="#ffffff"
     bordercolor="#666666"
     borderopacity="1.0"
     inkscape:pageopacity="0.0"
     inkscape:pageshadow="2"
     inkscape:zoom="0.7"
     inkscape:cx="852.12826"
     inkscape:cy="677.11481"
     inkscape:document-units="mm"
     inkscape:current-layer="layer1"
     showgrid="false"
     inkscape:window-width="1600"
     inkscape:window-height="837"
     inkscape:window-x="3192"
     inkscape:window-y="-8"
     inkscape:window-maximized="1" />
  <metadata
     id="metadata5">
    <rdf:RDF>
      <cc:Work
         rdf:about="">
        <dc:format>image/svg+xml</dc:format>
        <dc:type
           rdf:resource="http://purl.org/dc/dcmitype/StillImage" />
        <dc:title></dc:title>
      </cc:Work>
    </rdf:RDF>
  </metadata>
  <g
     inkscape:label="Layer 1"
     inkscape:groupmode="layer"
     id="layer1">
    <path
       style="opacity:1;fill:url(#linearGradient1321);fill-opacity:1;stroke:none;stroke-width:1.71485865;stroke-linecap:round;stroke-linejoin:round;stroke-miterlimit:4;stroke-dasharray:none;stroke-opacity:1"
       d="m 207.96721,165.35466 c 2.17996,19.91285 -89.87215,62.19208 -144.730777,26.92258 C 8.3778284,157.00773 3.5173736,135.47743 17.184621,100.0755 c 10.229812,-26.498052 36.709273,-7.357718 102.142019,4.97657 47.43789,8.94219 85.74694,33.87059 88.64057,60.30259 z"
       id="path1023"
       inkscape:connector-curvature="0"
       sodipodi:nodetypes="sssss" />
    <path
       style="opacity:1;fill:url(#linearGradient1507);fill-opacity:1;stroke:none;stroke-width:1.33634758;stroke-linecap:round;stroke-linejoin:round;stroke-miterlimit:4;stroke-dasharray:none;stroke-opacity:1"
       d="m 238.99335,205.0731 c -1.20221,-2.35654 -3.55669,-3.43752 -6.9344,-3.18371 -0.97518,0.0733 -1.63226,0.0818 -1.46019,0.0189 0.37258,-0.13615 0.43163,0.087 -4.08878,-15.45193 -5.49441,-18.88718 -9.46687,-32.03286 -9.80454,-32.44533 -0.26729,-0.32652 -0.21181,-0.35793 0.35062,-0.19855 1.76585,0.50042 4.03879,0.72866 5.61267,0.5636 5.63216,-0.59064 12.77581,-4.25167 16.10718,-8.25471 1.28475,-1.54379 2.84772,-4.37782 2.88683,-5.23448 0.0125,-0.27246 0.0973,-0.22965 0.26478,0.13364 0.13557,0.29399 3.98084,13.10288 8.54504,28.4642 4.5642,15.36131 8.35579,28.12039 8.42576,28.35349 0.21706,0.72313 -8.35471,4.62058 -15.83469,7.19979 -1.69499,0.58446 -3.18626,1.06265 -3.31393,1.06265 -0.12768,2e-5 -0.46803,-0.46241 -0.75635,-1.02757 z"
       id="path1082"
       inkscape:connector-curvature="0" />
    <path
       style="opacity:1;fill:url(#linearGradient1511);fill-opacity:1;stroke:none;stroke-width:1.33634758;stroke-linecap:round;stroke-linejoin:round;stroke-miterlimit:4;stroke-dasharray:none;stroke-opacity:1"
       d="m 245.229,219.37669 c -0.0677,-0.11507 -3.26417,-10.73294 -7.10333,-23.59529 -3.83918,-12.86234 -7.09402,-23.58405 -7.23299,-23.82603 -0.18329,-0.31914 -0.11596,-0.56365 0.24517,-0.89048 0.78692,-0.71216 2.32423,-3.87041 2.68647,-5.51913 0.31979,-1.45549 0.23707,-5.10147 -0.15159,-6.68169 -0.16329,-0.66392 -0.0143,-0.79032 2.72532,-2.31238 l 2.89806,-1.61006 2.04927,4.17736 c 1.27851,2.60621 2.10103,4.63194 2.18687,5.38598 0.0757,0.66474 0.2102,1.74983 0.29891,2.41132 0.0887,0.6615 0.15117,1.81458 0.13878,2.56241 -0.0153,0.92674 0.11006,1.46972 0.39381,1.70521 0.35372,0.29356 0.55659,0.19678 1.34929,-0.64374 0.51314,-0.54408 0.93298,-1.16108 0.93298,-1.37112 -1e-5,-0.21003 0.17797,-0.38187 0.39547,-0.38187 0.44451,0 1.47542,-1.84007 1.47542,-2.63345 2e-5,-0.28412 0.17986,-0.58576 0.40017,-0.67015 0.22008,-0.0845 0.65606,-0.68028 0.96882,-1.32404 0.4713,-0.97008 0.85853,-1.31343 2.26163,-2.00532 0.93113,-0.45916 1.74616,-0.74818 1.81117,-0.64226 0.065,0.10592 2.4213,7.95007 5.2362,17.43146 2.81489,9.48139 5.28626,17.75372 5.49191,18.38296 l 0.37393,1.14407 -2.70407,3.26588 c -6.34887,7.66791 -16.71417,18.34347 -17.12767,17.64036 z"
       id="path1086"
       inkscape:connector-curvature="0" />
    <path
       style="opacity:1;fill:url(#linearGradient1513);fill-opacity:1;stroke:none;stroke-width:1.33634758;stroke-linecap:round;stroke-linejoin:round;stroke-miterlimit:4;stroke-dasharray:none;stroke-opacity:1"
       d="m 263.38312,193.32843 c -0.8524,-2.84031 -3.28455,-10.9778 -5.40478,-18.0833 -2.12022,-7.1055 -3.968,-13.13033 -4.10616,-13.38849 -0.21854,-0.40835 0.32229,-0.75273 4.15849,-2.64795 l 4.4097,-2.17856 0.77117,0.57016 c 0.60893,0.45019 0.99234,0.53479 1.82228,0.40208 0.67789,-0.1084 1.32482,-0.0343 1.82198,0.2087 0.71581,0.34987 1.64147,0.52028 2.44131,0.44945 0.84041,-0.0744 -0.068,-3.19986 -1.08888,-3.74619 -0.48247,-0.25822 -0.57557,-0.50332 -0.49841,-1.31235 0.11662,-1.2229 -1.63529,-4.85239 -2.53278,-5.24724 -0.39509,-0.17382 -0.56287,-0.46808 -0.53337,-0.93544 0.0367,-0.58204 -0.0816,-0.69393 -0.80856,-0.76434 -1.2646,-0.12248 -2.3477,0.57563 -3.48128,2.24382 -0.9818,1.44484 -1.15841,1.5624 -5.82336,3.87614 l -4.81085,2.38612 -0.73087,-1.5948 c -0.7005,-1.52853 -0.7457,-2.41885 -0.12278,-2.41885 0.42988,0 2.84077,-2.64733 3.01265,-3.30811 0.0828,-0.31822 0.81468,-0.96954 1.66698,-1.48346 5.20194,-3.13662 15.69214,-10.42886 21.34995,-14.84137 1.58805,-1.23851 2.91245,-2.16869 2.94312,-2.06705 0.0307,0.10165 2.17726,7.34094 4.77022,16.08733 2.59294,8.7464 4.82124,16.01508 4.95173,16.15262 0.28432,0.29969 -3.99698,8.69861 -7.36565,14.44974 -3.88104,6.62582 -10.43497,16.25038 -14.98262,22.0022 -0.20645,0.26111 -0.68399,-0.99483 -1.82923,-4.81086 z"
       id="path1092"
       inkscape:connector-curvature="0" />
    <path
       style="opacity:1;fill:url(#linearGradient1521);fill-opacity:1;stroke:none;stroke-width:0.66817379;stroke-linecap:round;stroke-linejoin:round;stroke-miterlimit:4;stroke-dasharray:none;stroke-opacity:1"
       d="m 82.190336,177.21993 c -0.175213,-0.51561 -0.874575,-3.04298 -0.874576,-3.16053 7e-6,-0.31613 5.02531,-3.61954 8.819899,-5.79779 2.301242,-1.32102 6.462064,-3.57995 6.594052,-3.57995 0.04201,0 0.19982,0.40592 0.350716,0.90204 0.150896,0.49612 0.381507,1.13852 0.512482,1.42756 l 0.238126,0.52552 1.464291,-1.31096 c 0.805364,-0.72103 1.515774,-1.35779 1.578704,-1.41502 0.0629,-0.0572 -0.0423,-0.4958 -0.23386,-0.97461 -0.19155,-0.4788 -0.34827,-0.90995 -0.34827,-0.9581 -2e-5,-0.0482 2.5708,-1.35312 5.71288,-2.89991 7.31022,-3.59869 9.52186,-4.65367 9.5199,-4.54108 -0.001,0.0498 -0.30068,0.86817 -0.66635,1.81852 -0.36565,0.95036 -0.64115,1.75156 -0.61224,1.78044 0.0289,0.0289 0.80338,-0.49347 1.72114,-1.16075 1.2271,-0.89221 1.69286,-1.30972 1.76015,-1.57782 0.0503,-0.20053 0.27448,-0.839 0.49811,-1.41885 l 0.40659,-1.05427 4.07303,-1.98806 c 2.24016,-1.09344 4.09621,-1.98807 4.12456,-1.98808 0.0283,3e-5 -0.18747,0.31572 -0.47961,0.70159 -0.52332,0.69124 -1.92008,3.72072 -3.39736,7.36864 -0.4134,1.02092 -0.72912,1.87877 -0.70154,1.90636 0.0276,0.0276 0.60372,-0.34166 1.2803,-0.82054 0.67658,-0.47888 1.26214,-0.87069 1.30125,-0.87069 0.0391,-1e-5 -0.22701,0.37585 -0.59135,0.83522 -3.10199,3.91099 -3.64875,6.69254 -1.86382,9.48172 0.63347,0.98988 2.14987,2.34932 3.40537,3.05288 l 1.06149,0.59485 -1.01133,0.60685 -1.01133,0.60685 -1.67432,-0.76286 c -3.02694,-1.37915 -6.24913,-2.34971 -9.49194,-2.85906 -1.90065,-0.29854 -6.73238,-0.41024 -8.91565,-0.20611 -6.879135,0.64316 -13.929566,3.07549 -21.787293,7.51638 -0.521498,0.29473 -0.717398,0.35119 -0.762095,0.21965 z"
       id="path1102"
       inkscape:connector-curvature="0" />
    <path
       inkscape:connector-curvature="0"
       id="path18"
       style="font-style:normal;font-variant:normal;font-weight:bold;font-stretch:normal;font-size:70.55555725px;line-height:1.25;font-family:Calibri;-inkscape-font-specification:'Calibri Bold';letter-spacing:0px;word-spacing:0px;fill:#000000;fill-opacity:1;stroke:none;stroke-width:0.23964588"
       d="m 41.347824,138.01576 q -0.271183,0.91093 -0.548577,1.52057 -0.239227,0.58859 -0.512094,0.96687 -0.263852,0.3479 -0.552256,0.45514 -0.259116,0.11664 -0.551906,0.0229 l -17.361029,-5.55668 q -0.966114,-0.30922 -1.467847,-1.10169 -0.46366,-0.81331 -0.0659,-2.1496 L 30.903381,96.492596 q 0.09068,-0.303558 0.338235,-0.490404 0.277201,-0.177343 0.761529,-0.188615 0.48432,-0.01126 1.243341,0.131887 0.788298,0.152536 1.900807,0.508618 1.141795,0.365399 1.846592,0.690805 0.704821,0.32537 1.098796,0.617748 0.393749,0.292738 0.497368,0.591544 0.132662,0.308525 0.04232,0.612196 l -9.40457,31.611525 11.91558,3.81379 q 0.292762,0.0937 0.443493,0.34149 0.189025,0.22682 0.217999,0.66841 0.03796,0.41125 -0.09321,1.06768 -0.09284,0.63546 -0.363907,1.54644 z" />
    <path
       style="font-style:normal;font-variant:normal;font-weight:bold;font-stretch:normal;font-size:70.55555725px;line-height:1.25;font-family:Calibri;-inkscape-font-specification:'Calibri Bold';letter-spacing:0px;word-spacing:0px;fill:#000000;fill-opacity:1;stroke:none;stroke-width:0.23964588"
       d="m 72.306635,107.78201 c -3.005727,-0.96204 -5.792161,-1.33251 -8.358815,-1.11192 -2.547117,0.22684 -4.856645,0.98424 -6.928552,2.27222 -2.071908,1.28799 -3.877408,3.08218 -5.416984,5.38309 -1.533306,2.28085 -2.77328,5.01012 -3.718867,8.18848 -1.029908,3.46179 -1.560113,6.57387 -1.590819,9.33556 -0.01117,2.76792 0.471136,5.20585 1.447126,7.31416 0.975984,2.10832 2.436606,3.91739 4.381689,5.42683 1.970596,1.49545 4.42952,2.71481 7.376695,3.6581 2.986215,0.95579 5.749774,1.3302 8.290867,1.1236 2.566662,-0.22057 4.886084,-0.97483 6.957984,-2.26281 2.077921,-1.30825 3.889549,-3.12298 5.435155,-5.44412 1.545632,-2.32112 2.803389,-5.11134 3.773061,-8.37068 1.011859,-3.40104 1.507534,-6.46842 1.487155,-9.20211 0.0052,-2.74768 -0.489993,-5.17895 -1.485492,-7.29351 -0.975985,-2.10833 -2.449139,-3.91015 -4.419755,-5.4056 -1.951111,-1.48918 -4.361337,-2.69299 -7.230448,-3.61129 z m -9.287581,1.80347 -0.0074,1.67989 c -0.07912,0.37678 -0.123009,0.75675 -0.0724,1.1422 0.04505,0.40957 0.06416,0.83896 0.23523,1.21719 0.123675,0.23188 0.238886,0.47023 0.388282,0.68348 0.465061,-0.18566 0.948024,-0.33625 1.451904,-0.44573 1.491493,-0.34299 3.183896,-0.21165 5.07712,0.39432 1.873707,0.5997 3.335886,1.43354 4.386275,2.5014 0.489335,0.48528 0.902777,1.01584 1.247024,1.58795 0.08592,-0.0643 0.169341,-0.13231 0.249664,-0.20545 0.207921,-0.18958 0.336895,-0.44017 0.445251,-0.69957 0.08755,-0.22267 0.154678,-0.45337 0.222877,-0.68295 l 0.454028,-2.36422 c -0.07036,0.2341 1.140871,2.52045 1.061248,2.75142 -0.108446,0.28137 -0.23654,0.55557 -0.435894,0.78141 -0.232427,0.21683 -0.463389,0.43459 -0.758256,0.55846 -0.321417,0.12109 -0.651758,0.22498 -0.986819,0.31323 0.276207,0.53532 0.497219,1.10389 0.655831,1.70951 0.405848,1.43806 0.511714,3.05707 0.318076,4.85754 -0.187606,1.78024 -0.588374,3.7027 -1.202702,5.76763 -0.560166,1.88271 -1.255973,3.61147 -2.087669,5.18554 -0.806133,1.56009 -1.786571,2.84268 -2.940701,3.84794 -1.154122,1.00529 -2.473872,1.66913 -3.959346,1.99187 -1.485465,0.32274 -3.174827,0.18113 -5.068036,-0.42482 -1.893227,-0.60596 -3.370852,-1.42274 -4.433285,-2.45012 -1.056405,-1.04763 -1.774803,-2.29732 -2.155121,-3.74936 -0.380298,-1.45204 -0.473635,-3.0783 -0.280012,-4.87878 0.199655,-1.82072 0.618494,-3.80392 1.256913,-5.94983 0.548303,-1.84215 1.222361,-3.53337 2.022495,-5.07321 0.825661,-1.55384 1.812521,-2.82311 2.9606,-3.80814 0.328282,-0.28162 0.671735,-0.53314 1.027586,-0.76064 -0.277135,-0.27426 -0.42414,-0.6449 -0.613797,-0.98267 -0.173298,-0.40248 -0.199888,-0.85639 -0.245243,-1.29025 -0.05647,-0.40228 -0.02013,-0.80098 0.05405,-1.19695 0.01193,-0.0566 0.0256,-0.11293 0.03754,-0.16959 z m 13.517235,8.74998 c -0.104733,0.024 -0.165913,0.0396 -0.260753,0.0617 0.02033,-0.004 0.05429,-0.009 0.06602,-0.0119 0.06536,-0.0147 0.260064,-0.0648 0.194738,-0.0499 z"
       id="path20"
       inkscape:connector-curvature="0"
       sodipodi:nodetypes="scscscscsccsscccsccccccsccccccccccccscssscccscscccccccccc" />
    <path
       style="font-style:normal;font-variant:normal;font-weight:bold;font-stretch:normal;font-size:70.55555725px;line-height:1.25;font-family:Calibri;-inkscape-font-specification:'Calibri Bold';letter-spacing:0px;word-spacing:0px;fill:#000000;fill-opacity:1;stroke:none;stroke-width:0.23964588"
       d="m 99.995016,117.20988 c -0.761191,-0.24366 -1.394948,-0.41317 -1.90095,-0.50865 -0.506028,-0.0955 -0.930033,-0.14263 -1.272431,-0.14137 -0.322877,0.007 -0.567011,0.0737 -0.732296,0.19814 -0.165249,0.12451 -0.27808,0.2879 -0.338529,0.49018 l -7.109808,23.89813 c -0.746777,2.51032 -1.058926,4.81623 -0.935928,6.91761 0.14854,2.08736 0.690057,3.9681 1.624332,5.64179 0.934249,1.67372 2.254518,3.12727 3.961029,4.36081 1.712533,1.2133 3.759397,2.201 6.140558,2.96312 2.537307,0.81211 4.884557,1.18631 7.041117,1.1227 2.15654,-0.0636 4.09417,-0.54095 5.81286,-1.43203 1.71868,-0.8911 3.20237,-2.1789 4.45163,-3.86321 1.24925,-1.68432 2.23253,-3.73094 2.94925,-6.14002 l 7.01048,-23.56424 c 0.0602,-0.20247 0.0558,-0.40339 -0.0131,-0.60282 -0.0689,-0.19944 -0.23466,-0.39677 -0.49731,-0.59169 -0.26265,-0.19494 -0.62912,-0.40075 -1.09898,-0.61765 -0.45036,-0.21066 -1.04623,-0.43464 -1.78791,-0.67204 -0.74167,-0.23741 -1.37542,-0.40692 -1.90095,-0.50865 -0.50602,-0.0954 -0.92057,-0.13959 -1.24344,-0.13208 -0.32288,0.007 -0.567,0.0737 -0.73229,0.19814 -0.16526,0.12451 -0.27808,0.28791 -0.33853,0.49018 l -1.33728,4.49484 c 0.23826,0.22597 0.42692,0.50637 0.61057,0.78009 0.2675,0.31029 0.4219,0.69283 0.59602,1.06181 0.1719,0.46819 0.36192,0.92874 0.55698,1.38704 0.12115,0.35911 0.27413,0.70787 0.37604,1.0737 0.11591,0.38279 0.32797,0.72026 0.49101,1.08006 0.10636,0.30212 0.17966,0.61814 0.23116,0.93505 0.0502,0.28478 0.0397,0.57292 0.0389,0.86051 l -0.74764,2.41034 c 2.9e-4,-0.27732 -0.95081,-2.6012 -1.00654,-2.87553 -0.0498,-0.30018 -0.11838,-0.60014 -0.21647,-0.88743 -0.16915,-0.36762 -0.37107,-0.72008 -0.50032,-1.10699 -0.10283,-0.35704 -0.238,-0.70414 -0.36022,-1.05416 -0.18938,-0.45781 -0.37619,-0.91702 -0.55549,-1.37907 -0.0391,-0.0822 -0.0815,-0.16209 -0.12129,-0.24387 l -1.36071,4.57364 c 0.21443,0.13062 0.4297,0.26029 0.64403,0.39119 0.36992,0.25133 0.71383,0.54223 1.06103,0.82604 0.2636,0.23448 0.55675,0.42339 0.84015,0.62913 0.25065,0.19804 0.42557,0.37192 0.52915,0.6852 0.10962,0.43128 0.20862,0.86577 0.34841,1.28784 0.14897,0.40828 0.26214,0.82788 0.27769,1.26522 0.0378,0.36807 -0.0331,0.73258 -0.0622,1.09808 -0.0141,0.41487 -0.0766,0.82375 -0.15976,1.22897 -0.0696,0.32164 -0.14713,0.641 -0.29348,0.93474 -0.0276,0.0488 -0.0556,0.0968 -0.0831,0.1455 l -1.68951,2.47121 c 0.028,-0.0463 0.008,-2.29708 0.0364,-2.34331 0.16088,-0.27125 0.2308,-0.57563 0.30451,-0.88282 0.0901,-0.3955 0.15795,-0.79587 0.17035,-1.20312 0.0199,-0.36049 0.0894,-0.71801 0.0607,-1.08011 -0.005,-0.42003 -0.11513,-0.82201 -0.25798,-1.21351 -0.13681,-0.42191 -0.23735,-0.85529 -0.36352,-1.28071 -0.0956,-0.25562 -0.28488,-0.4197 -0.49756,-0.57631 -0.28868,-0.20067 -0.5631,-0.41799 -0.83466,-0.64282 -0.14799,-0.11874 -0.29378,-0.24086 -0.44087,-0.3611 l -1.32147,4.44203 c 0.29991,0.17874 0.52084,0.47548 0.67718,0.79543 0.17194,0.4298 0.26998,0.88326 0.34128,1.34095 0.0422,0.34298 0.14231,0.67485 0.16845,1.01972 0.007,0.30536 -0.0849,0.59964 -0.13627,0.89777 -0.0916,0.36199 -0.0622,0.73069 -0.0539,1.09924 0.008,0.33084 -0.0373,0.65771 -0.10673,0.97953 -0.0761,0.26665 -0.13644,0.53395 -0.17803,0.80857 -0.0193,0.13552 -0.046,0.26965 -0.073,0.40365 l -1.61081,2.28259 c 0.0285,-0.13057 -0.0655,-2.21596 -0.0458,-2.34838 0.0426,-0.27845 0.0855,-0.55448 0.17483,-0.82206 0.074,-0.30656 0.12819,-0.61854 0.12411,-0.93606 -0.008,-0.3798 -0.0494,-0.75966 0.0453,-1.13343 0.0465,-0.28453 0.12006,-0.56503 0.13649,-0.85328 -0.0155,-0.33979 -0.11101,-0.66903 -0.14984,-1.00628 -0.007,-0.0466 -0.0162,-0.093 -0.024,-0.13939 l -1.2898,4.33543 c -0.35195,1.18381 -0.81066,2.21761 -1.3746,3.10401 0.22135,0.31569 0.43407,0.63745 0.60929,0.98323 0.18354,0.38382 0.20018,0.80402 0.20758,1.22282 0.0136,0.34023 -0.0298,0.67433 -0.10225,1.00493 -0.0671,0.28975 -0.1556,0.57341 -0.24034,0.85796 -0.0138,0.0462 -1.60769,2.0044 -1.62146,2.05056 l -0.15364,-1.60001 c 0.014,-0.0463 0.028,-0.0926 0.0424,-0.13861 0.084,-0.28094 0.16897,-0.56162 0.2428,-0.84569 0.0749,-0.31572 0.12672,-0.63608 0.11858,-0.96279 -0.005,-0.39241 -0.0123,-0.78018 -0.19138,-1.13831 -0.002,-0.004 -0.004,-0.006 -0.005,-0.01 -0.46691,0.49613 -0.97533,0.91091 -1.52534,1.24387 -0.88041,0.51641 -1.85594,0.81406 -2.92674,0.8926 -1.0708,0.0785 -2.2113,-0.0756 -3.42138,-0.463 -1.1906,-0.38105 -2.219623,-0.90997 -3.087108,-1.58672 -0.434597,-0.35653 -0.819906,-0.75172 -1.158035,-1.18382 -0.04625,0.14204 -0.08914,0.28557 -0.131943,0.4287 -0.09063,0.33198 -0.02757,0.67425 0.04918,1.002 0.0868,0.44118 0.414684,2.10386 0.729316,2.38422 l -1.77363,-0.93201 c -0.333523,-0.30666 -0.568506,-0.57872 -0.662394,-1.04562 -0.08378,-0.35813 -0.156534,-0.73181 -0.07364,-1.09763 0.08609,-0.28772 0.16967,-0.57668 0.270993,-0.85914 0.09663,-0.25718 0.200921,-0.51198 0.33129,-0.75302 0.08253,-0.22931 0.176437,-0.45624 0.357419,-0.62093 -0.407845,-0.92503 -0.630039,-1.97396 -0.661557,-3.15008 -0.02721,-1.25738 0.186228,-2.65493 0.638612,-4.19165 -0.307109,-0.0916 -0.616183,-0.13448 -0.929233,-0.13578 -0.132726,0.1061 -0.244365,0.23971 -0.345128,0.38242 -0.142891,0.2679 -0.278232,0.53852 -0.436011,0.79781 -0.157618,0.23662 -0.260329,0.50316 -0.375117,0.76293 -0.13317,0.2547 -0.238362,0.52306 -0.354564,0.786 -0.143834,0.27622 -1.347367,2.72437 -1.452248,3.01856 l -0.648119,-1.85947 c 0.103937,-0.29932 0.209432,-0.59792 0.363555,-0.8744 0.127853,-0.25654 0.210562,-0.53667 0.35412,-0.78612 0.128315,-0.25908 0.209254,-0.54332 0.373632,-0.78387 0.160304,-0.25816 0.310879,-0.51998 0.43336,-0.80016 0.142802,-0.24982 0.329351,-0.48301 0.56975,-0.63629 0.146351,-0.0715 0.122107,-0.0693 0.27736,-0.10779 0.802999,-0.19868 1.577264,-0.4478 2.394172,-0.52678 l 4.45e-4,1.4e-4 2.857262,-9.60417 c -0.232332,-0.12482 -0.47105,-0.2374 -0.711174,-0.34335 -0.252556,-0.10832 -0.507469,-0.2075 -0.767247,-0.28901 -0.105165,0.12312 -0.19731,0.25929 -0.289491,0.39423 -0.186905,0.25916 -0.324558,0.54733 -0.440333,0.84632 -0.09374,0.25399 -0.170478,0.51406 -0.247522,0.77386 -0.09029,0.31175 -0.197755,0.61837 -0.26909,0.93556 -0.01574,0.32378 -0.04713,0.64421 -0.08022,0.96657 -0.04233,0.33084 -0.06199,0.66186 -0.05567,0.99539 0.0053,0.14365 -0.294711,2.29193 -0.307349,2.43475 l -1.440188,-1.65811 c 0.01574,-0.13562 0.02944,-0.27136 0.02579,-0.40831 -0.0044,-0.34037 0.009,-0.67845 0.05505,-1.01604 0.02864,-0.32929 0.07079,-0.65636 0.07648,-0.98774 0.06341,-0.3223 0.172035,-0.63308 0.258382,-0.94946 0.07835,-0.26447 0.157414,-0.52845 0.249826,-0.78807 0.115882,-0.31186 0.244775,-0.61804 0.436331,-0.88952 0.175628,-0.26004 0.332891,-0.54261 0.581374,-0.73683 0.688647,-0.48122 0.720076,-0.29695 2.08684,-0.62863 0.08924,-0.0217 0.227175,-0.0422 0.318057,-0.0409 0.0571,9.2e-4 0.113578,0.0118 0.170309,0.0176 0.236344,0.055 0.465751,0.13284 0.691929,0.2205 l 1.665877,-5.59942 c -0.31278,-0.10202 -0.62645,-0.2024 -0.94037,-0.30045 -0.25594,-0.0801 -0.51141,-0.16175 -0.766844,-0.24351 -0.04162,0.0293 -0.08378,0.0579 -0.12457,0.0888 -0.26073,0.18416 -0.447786,0.43601 -0.621804,0.70295 -0.180119,0.22595 -0.28323,0.49415 -0.382036,0.7652 -0.118648,0.35912 -0.233738,0.72006 -0.324807,1.08784 -0.0683,0.3508 -0.616752,2.29242 -0.520392,2.63148 l -1.106959,-1.17082 c -0.09857,-0.36961 -0.156445,-0.7538 -0.09581,-1.13617 0.07328,-0.37934 0.211184,-0.74083 0.322761,-1.10944 0.09162,-0.28455 0.177496,-0.57806 0.362648,-0.81482 0.198351,-0.26084 0.348135,-0.56376 0.622382,-0.75664 0.248795,-0.20215 0.500052,-0.39054 0.802866,-0.49829 0.701124,-0.26961 0.160375,-0.068 1.944265,-0.47271 0.18936,-0.0429 0.39014,-0.0162 0.57598,0.0282 0.18543,0.0594 0.37069,0.11958 0.55589,0.1798 l 1.52285,-5.11889 c 0.0602,-0.20246 0.0464,-0.40641 -0.0421,-0.6121 -0.0689,-0.19943 -0.23467,-0.39676 -0.49731,-0.59169 -0.26266,-0.19494 -0.62911,-0.40075 -1.09899,-0.61765 -0.46987,-0.2169 -1.07564,-0.44406 -1.817318,-0.68144 z M 97.46489,131.8496 c -0.02161,0.004 -0.06661,0.0152 -0.14057,0.0343 0.06101,-0.0144 0.0836,-0.0208 0.14057,-0.0343 z m -2.684072,11.05894 c -0.01405,0.002 -0.02819,0.003 -0.04207,0.006 -0.05514,0.0106 -0.218432,0.0549 -0.16363,0.0424 0.09783,-0.0224 0.117029,-0.0275 0.20567,-0.048 z"
       id="path22"
       inkscape:connector-curvature="0"
       sodipodi:nodetypes="scccsscccscccsccccscccscccccccccccccccccccccccccccccccccccccccccccccccccccccsccccccccccccccscccccccccccccccccccccccccccccccccccccccccccccccccccccccccccccccccccscccsccccccc" />
    <path
       inkscape:connector-curvature="0"
       id="path24"
       style="font-style:normal;font-variant:normal;font-weight:bold;font-stretch:normal;font-size:70.55555725px;line-height:1.25;font-family:Calibri;-inkscape-font-specification:'Calibri Bold';letter-spacing:0px;word-spacing:0px;fill:#000000;fill-opacity:1;stroke:none;stroke-width:0.23964588"
       d="m 149.48934,163.38261 q -0.92152,3.09738 -2.72963,5.07953 -1.80814,1.98213 -4.18091,2.95211 -2.36371,0.93961 -5.14565,0.91392 -2.78197,-0.0257 -5.68035,-0.9534 -1.96153,-0.62783 -3.5602,-1.50534 -1.56939,-0.86815 -2.72207,-1.73595 -1.14361,-0.89818 -1.86833,-1.6955 -0.69544,-0.78798 -0.9586,-1.30456 -0.26313,-0.51658 -0.22198,-1.3016 0.0794,-0.80602 0.49504,-2.20287 0.28009,-0.94136 0.5283,-1.56034 0.24829,-0.61895 0.48282,-0.97623 0.26386,-0.34789 0.51394,-0.43416 0.28843,-0.1072 0.58119,-0.0136 0.40987,0.13114 0.98819,0.88167 0.61665,0.7295 1.60704,1.71166 0.99038,0.98214 2.44701,2.01375 1.49492,1.01066 3.63214,1.69467 1.40527,0.44979 2.61716,0.47182 1.22093,-0.008 2.17183,-0.40237 0.98018,-0.3847 1.67011,-1.19488 0.68994,-0.81017 1.03323,-1.9641 0.39746,-1.33615 -0.0251,-2.50238 -0.41354,-1.19662 -1.33851,-2.29086 -0.88665,-1.11524 -2.1315,-2.21209 -1.23581,-1.12723 -2.54136,-2.34329 -1.30556,-1.21605 -2.46909,-2.58621 -1.15449,-1.40051 -1.91686,-3.04135 -0.72403,-1.66184 -0.90269,-3.64799 -0.17866,-1.98616 0.55311,-4.44583 0.84017,-2.82409 2.46798,-4.63115 1.66611,-1.82806 3.77972,-2.68143 2.15193,-0.87435 4.67256,-0.83252 2.54992,0.0512 5.15555,0.88519 1.34671,0.43106 2.63019,1.07464 1.2835,0.64362 2.34615,1.38284 1.06264,0.73921 1.83471,1.48518 0.77206,0.746 0.97449,1.14337 0.20242,0.39736 0.22702,0.63804 0.0539,0.25005 0.004,0.63319 -0.0116,0.36214 -0.14488,0.91811 -0.12433,0.5256 -0.35924,1.31511 -0.26229,0.88055 -0.50126,1.46921 -0.20991,0.59797 -0.4445,0.95525 -0.20529,0.36664 -0.46441,0.48325 -0.22986,0.126 -0.55193,0.0229 -0.32202,-0.1031 -0.89818,-0.75308 -0.57616,-0.65003 -1.4563,-1.46386 -0.87109,-0.84418 -2.10037,-1.67 -1.22025,-0.85618 -2.83047,-1.37155 -1.25888,-0.40293 -2.29512,-0.36875 -1.02719,0.004 -1.84292,0.37462 -0.77743,0.34982 -1.33437,1.03626 -0.52763,0.69585 -0.78963,1.57647 -0.38855,1.30572 -0.004,2.49299 0.42257,1.16626 1.33851,2.29088 0.95425,1.10361 2.21933,2.24019 1.2741,1.10622 2.57967,2.32229 1.30556,1.21606 2.48934,2.62595 1.1928,1.37952 1.94612,3.05073 0.76235,1.64083 0.94102,3.62698 0.18768,1.95579 -0.51698,4.32438 z" />
    <path
       inkscape:connector-curvature="0"
       id="path26"
       style="font-style:normal;font-variant:normal;font-weight:bold;font-stretch:normal;font-size:70.55555725px;line-height:1.25;font-family:Calibri;-inkscape-font-specification:'Calibri Bold';letter-spacing:0px;word-spacing:0px;fill:#000000;fill-opacity:1;stroke:none;stroke-width:0.23964588"
       d="m 175.25435,181.1077 q -0.26228,0.88053 -0.5305,1.45986 -0.23016,0.55822 -0.48496,0.87579 -0.25477,0.31756 -0.54322,0.42476 -0.2501,0.0863 -0.51359,0.002 l -19.02979,-6.09079 q -0.96613,-0.30924 -1.46786,-1.10171 -0.46343,-0.81346 -0.0659,-2.1496 l 10.19052,-34.2534 q 0.39745,-1.33614 1.21327,-1.70691 0.85404,-0.39182 1.82018,-0.0826 l 18.91268,6.05333 q 0.2635,0.0843 0.42324,0.30177 0.15978,0.21744 0.18871,0.65905 0.038,0.41125 -0.0841,1.03733 -0.0838,0.60507 -0.35484,1.51607 -0.25253,0.85039 -0.52146,1.42947 -0.23016,0.55824 -0.48496,0.87579 -0.25478,0.31756 -0.51394,0.43416 -0.2501,0.0862 -0.51361,0.002 l -13.52578,-4.32916 -2.85482,9.59581 11.44716,3.66386 q 0.2635,0.0843 0.41422,0.33213 0.18905,0.22682 0.22701,0.63806 0.0471,0.38089 -0.0752,1.00696 -0.0839,0.60506 -0.33678,1.45532 -0.26229,0.88054 -0.52147,1.42948 -0.23016,0.55824 -0.48503,0.87575 -0.24576,0.28717 -0.52513,0.36405 -0.25012,0.0862 -0.5136,0.002 l -11.44717,-3.66387 -3.29743,11.08379 13.64289,4.36665 q 0.26348,0.0844 0.41421,0.33214 0.18903,0.22682 0.22701,0.63804 0.038,0.41127 -0.0841,1.03733 -0.0838,0.60506 -0.34577,1.48572 z" />
    <path
       style="opacity:1;fill:#000000;fill-opacity:1;stroke:#000000;stroke-width:1.19822943;stroke-linecap:round;stroke-linejoin:round;stroke-miterlimit:4;stroke-dasharray:none"
       id="path904"
       d="m 36.087269,100.0875 c 0.24569,-0.462567 0.547952,-0.890336 0.879251,-1.290334 0.247372,-0.335268 0.581478,-0.551657 0.945548,-0.725777 0.375331,-0.153362 0.760245,-0.280239 1.141235,-0.417813 0.894133,-0.257967 1.806476,-0.492218 2.730137,-0.610015 0.448012,-0.06011 0.567122,-2.750738 1.020655,-2.772637 0.215312,-0.0078 0.746005,2.612705 0.955781,2.657837 l 2.26881,0.996989 -2.139063,0.605432 c -0.202662,-0.03174 -2.194836,-1.043442 -2.4001,-1.026266 -0.450487,0.03992 -0.88967,0.147611 -1.338622,0.199564 -0.176723,0.02607 -0.351033,0.05673 -0.526,0.09353 -0.05507,0.01159 -0.219758,0.04851 -0.165081,0.0352 1.822309,-0.445007 1.991816,-0.491579 1.341098,-0.318501 -0.385153,0.12321 -0.762315,0.275365 -1.146064,0.403377 -0.361911,0.142976 -0.710596,0.33033 -0.959705,0.646766 -0.335304,0.373089 -0.629461,0.784088 -0.869203,1.230067 l -1.738659,0.292621 z"
       inkscape:connector-curvature="0"
       sodipodi:nodetypes="ccccccccccccccccccc" />
    <path
       style="opacity:1;fill:#000000;fill-opacity:1;stroke:#000000;stroke-width:1.19822943;stroke-linecap:round;stroke-linejoin:round;stroke-miterlimit:4;stroke-dasharray:none;stroke-opacity:1"
       id="path906"
       d="m 31.905895,97.956274 c -0.377269,-0.597571 -0.791793,-1.16746 -1.148145,-1.77949 -0.428068,-0.783523 -0.867201,-1.560426 -1.322199,-2.327449 -0.291065,-0.540351 -0.624845,-1.064289 -0.865164,-1.632903 -0.118141,-0.279503 -2.370399,0.827881 -2.453162,0.537491 -0.157289,-0.641888 3.11054,-2.085344 0.25719,-3.494662 l 2.103035,-2.354977 3.567174,2.851095 c 0.07622,0.64883 -2.213599,0.629447 -2.055313,1.263378 0.08698,0.31163 2.258662,0.790195 2.384202,1.090818 0.235721,0.564542 -1.583444,0.757739 -1.289311,1.289843 0.459383,0.765626 0.902864,1.541077 1.331671,2.325581 0.367264,0.611197 0.783602,1.184361 1.189944,1.767645 z"
       inkscape:connector-curvature="0"
       sodipodi:nodetypes="cccccccccccccc" />
    <path
       style="opacity:1;fill:#ffffff;fill-opacity:1;stroke:#000000;stroke-width:1.19822943;stroke-linecap:round;stroke-linejoin:round;stroke-miterlimit:4;stroke-dasharray:none;stroke-opacity:1"
       id="path908"
       d="m 127.2134,166.72504 c -0.15766,0.3508 -0.34144,0.68764 -0.49935,1.03834 -0.14776,0.35889 -0.27918,0.72705 -0.37205,1.10543 -0.0728,0.32945 -0.0768,0.67009 -0.0847,1.00655 0.0484,0.41859 0.20907,0.8212 0.38871,1.19666 0.088,0.24581 0.24776,0.45915 0.3323,0.70581 0.0396,0.11558 0.0628,0.23658 0.0942,0.35485 0.0728,0.32381 0.13423,0.64284 0.13187,0.9762 0.0143,0.32747 -0.0991,0.53576 -0.15843,0.85657 -0.0606,0.29206 -0.07,0.6934 -0.15337,0.97916 -0.0546,0.1852 -0.11098,0.36978 -0.16689,0.55454 v 0 l -0.72102,1.63918 c 0.0559,-0.18439 -0.66874,-2.54332 -0.61323,-2.72782 0.0839,-0.28032 -0.0648,0.28587 0,0 0.0644,-0.30935 0.10737,-0.62201 0.0915,-0.93963 0.008,-0.31691 -0.0571,-0.61784 -0.12098,-0.92658 -0.01,-0.039 -0.0722,-0.29003 -0.0855,-0.32761 -0.0857,-0.24382 -0.24086,-0.45731 -0.32475,-0.70255 -0.18197,-0.40593 -0.35898,-0.83222 -0.41681,-1.27821 0.009,-0.34919 0.0109,-0.70254 0.084,-1.04515 0.0848,-0.39099 0.22251,-0.76682 0.36358,-1.13937 0.15063,-0.35217 0.34463,-0.68145 0.48905,-1.03598 l 1.74135,-0.29054 z"
       inkscape:connector-curvature="0"
       sodipodi:nodetypes="ccccccccccccccccccccccccc" />
    <path
       style="opacity:1;fill:#ffffff;fill-opacity:1;stroke:#000000;stroke-width:1.19822943;stroke-linecap:round;stroke-linejoin:round;stroke-miterlimit:4;stroke-dasharray:none;stroke-opacity:1"
       id="path910"
       d="m 138.19603,170.75367 c -0.21564,0.32747 -0.42155,0.66029 -0.59439,1.01424 -0.16456,0.36263 -0.37979,0.69362 -0.60668,1.01653 -0.24787,0.34272 -0.59575,0.58014 -0.8832,0.88392 -0.0438,0.0567 -0.0883,0.11317 -0.13239,0.16979 0,0 -1.73061,0.24709 -1.73061,0.24709 v 0 c 0.0432,-0.0625 0.0864,-0.12479 0.12959,-0.18718 0.13963,-0.16466 0.28431,-0.31836 0.44934,-0.45639 0.13863,-0.11594 0.18129,-0.12319 0.30707,-0.25497 0.0455,-0.0478 0.0837,-0.10259 0.1256,-0.15384 0.23238,-0.30755 0.44311,-0.63306 0.61144,-0.98322 0.16921,-0.35911 0.37261,-0.69473 0.57698,-1.03294 0,0 1.74729,-0.26298 1.74729,-0.26298 z"
       inkscape:connector-curvature="0" />
    <path
       style="opacity:1;fill:#ffffff;fill-opacity:1;stroke:#000000;stroke-width:1.19822943;stroke-linecap:round;stroke-linejoin:round;stroke-miterlimit:4;stroke-dasharray:none;stroke-opacity:1"
       id="path912"
       d="m 144.70848,148.27611 c 0.45785,0.24163 0.82329,0.26736 1.03259,0.64473 0.23133,0.36019 0.2829,0.77231 0.33977,1.18953 0.0497,0.51055 0.0659,1.02553 0.0338,1.53766 -0.042,0.4187 -0.11674,0.83287 -0.18024,1.2486 -0.0443,0.30068 -0.11216,0.5965 -0.18948,0.88961 -0.0697,0.26379 -0.15227,0.52359 -0.23138,0.78445 -0.0898,0.30383 -0.18136,0.60714 -0.27119,0.91097 -0.077,0.26119 -0.15358,0.5225 -0.23111,0.78352 -0.082,0.37161 -0.25097,0.68683 -0.47003,0.98745 -0.19384,0.29515 -0.39235,0.58438 -0.60342,0.8668 -0.28075,0.375 -0.59483,0.72106 -0.88835,1.08515 -0.2769,0.37236 -0.60489,0.68769 -0.96873,0.96543 -0.32969,0.24065 -0.66963,0.47733 -1.0428,0.63889 l -0.0886,1.95106 -0.64148,-1.39121 c 0.38667,-0.11351 -0.29384,-0.77321 0.0358,-1.00595 0.36786,-0.26002 0.70381,-0.55294 0.97944,-0.91911 0.2887,-0.36317 0.59323,-0.71211 0.88138,-1.07568 0.20362,-0.28712 0.4208,-0.56186 0.59754,-0.86836 0.10289,-0.1344 0.23345,-0.27086 0.31255,-0.42229 0.0813,-0.1558 0.10511,-0.33383 0.16054,-0.49914 0.0784,-0.2615 0.15676,-0.52302 0.23513,-0.78453 0.0908,-0.30379 0.18064,-0.60787 0.27309,-0.91111 0.0762,-0.25943 0.15164,-0.5191 0.22704,-0.7788 0.0803,-0.28706 0.15353,-0.57648 0.20208,-0.8714 0.0674,-0.41085 0.13687,-0.82131 0.19294,-1.23382 0.0353,-0.49914 0.0234,-1.00118 -0.0278,-1.49887 -0.0595,-0.39403 -0.11107,-0.78224 -0.32987,-1.12258 -0.20661,-0.37613 -0.93925,-0.39205 -1.15956,-0.75924 l 1.15207,-0.23619 z"
       inkscape:connector-curvature="0"
       sodipodi:nodetypes="cccccccccccccccccccccccccccccccc" />
    <path
       style="opacity:1;fill:#ffffff;fill-opacity:1;stroke:#000000;stroke-width:1.19822943;stroke-linecap:round;stroke-linejoin:round;stroke-miterlimit:4;stroke-dasharray:none;stroke-opacity:1"
       id="path914"
       d="m 139.15629,140.60435 c -0.82488,-0.131 -0.44184,-0.74841 -0.62654,-1.26113 -0.21736,-0.51356 -0.28946,-1.06349 -0.38355,-1.6097 -0.0906,-0.45432 -0.14098,-0.91119 -0.17934,-1.37233 -0.0679,-0.46614 0.0124,-0.92502 0.0769,-1.38522 0.0519,-0.42699 0.13714,-0.84883 0.23478,-1.26683 0.10082,-0.38107 0.2136,-0.75859 0.32422,-1.13667 0.0844,-0.29178 0.17143,-0.58272 0.25928,-0.8734 0.0856,-0.31473 0.18659,-0.62183 0.33354,-0.91157 0.16648,-0.28279 0.42447,-0.4745 0.70049,-0.62881 0.20886,-0.14769 0.43748,-0.255 0.67703,-0.33564 0.87411,-0.24152 1.68302,-0.52893 2.56462,-0.39593 0.29535,0.0526 0.5981,0.13332 0.89838,0.10351 0.35417,-0.0396 0.66862,0.0285 0.92528,0.29232 0.19204,0.21223 0.28205,0.50525 0.35376,0.78177 0.0135,0.0426 0.0271,0.0853 0.0407,0.12802 l -1.71301,0.42154 v 0 c -0.0138,-0.0454 -0.0275,-0.091 -0.0413,-0.13639 -0.0648,-0.24444 -0.1446,-0.50186 -0.32914,-0.67756 -0.26064,-0.19932 -0.56943,-0.18513 -0.88043,-0.16705 -0.30481,-0.0202 -0.6042,-0.0756 -0.9056,-0.1242 -0.72714,-0.0528 -2.10571,0.27184 0.84437,-0.35529 -0.24071,0.0528 -0.47963,0.14074 -0.68333,0.28581 -0.28481,0.19217 0.0524,-0.0241 -0.24434,0.13131 -0.18004,0.0942 -0.34211,0.2477 -0.46892,0.40677 -0.16908,0.26499 -0.25585,0.5663 -0.33934,0.86976 -0.0872,0.29175 -0.17445,0.58349 -0.26422,0.87443 -0.1132,0.37416 -0.22644,0.74848 -0.32429,1.12736 -0.10576,0.41133 -0.19762,0.82692 -0.24911,1.2498 -0.0604,0.44696 -0.14856,0.89176 -0.0776,1.34471 0.0309,0.45616 0.0799,0.90684 0.16622,1.35632 0.0959,0.53432 -0.008,1.02564 0.21124,1.52729 -0.10959,0.67154 -0.21443,0.25701 0.051,0.72293 l -1.81869,2.08246 z"
       inkscape:connector-curvature="0"
       sodipodi:nodetypes="cccccccccccccccccccccccccccccccccccc" />
    <path
       style="opacity:1;fill:#ffffff;fill-opacity:1;stroke:#000000;stroke-width:1.19822943;stroke-linecap:round;stroke-linejoin:round;stroke-miterlimit:4;stroke-dasharray:none;stroke-opacity:1"
       id="path916"
       d="m 144.66179,137.52894 c 0.0545,0.42032 0.18521,0.82458 0.34627,1.21279 0.0985,0.27634 0.2809,0.42765 0.52897,0.54704 0.32257,0.13395 0.65733,0.23356 0.98882,0.34062 0.27912,0.0941 0.5533,0.045 0.83057,-0.0218 0.0603,-0.0146 0.24165,-0.0569 0.18117,-0.043 -0.5112,0.11781 -1.02223,0.23647 -1.53335,0.35468 0.27482,-0.0887 0.52357,-0.23136 0.74311,-0.4226 0.22468,-0.20502 0.48642,-0.34851 0.70473,-0.56187 0.2103,-0.21407 0.41528,-0.43424 0.61267,-0.66118 0.15628,-0.20866 0.2682,-0.52157 0.42292,-0.7318 0.19676,-0.21294 0.23114,-0.4641 0.39421,-0.70436 0.19697,-0.24817 0.37279,-0.55703 0.58819,-0.78794 0.21721,-0.205 0.42536,-0.44248 0.5941,-0.68927 0.23499,-0.28807 0.47813,-0.48525 0.68596,-0.79448 0.17258,-0.22396 0.49336,-0.36463 0.72823,-0.5151 0.78017,-0.37537 1.66953,-0.65822 2.52883,-0.52899 0.24525,0.0468 0.35718,0.1429 0.59474,0.2199 0.009,0.29088 0.029,0.0986 0.18927,0.40557 0.14918,0.32379 0.30781,0.51406 0.29001,0.86159 -0.006,0.061 0.23642,3.29913 0.23017,3.36015 l -1.58237,-2.51391 v 0 c 0.006,-0.0577 0.013,-0.1154 0.0195,-0.17306 0.0185,-0.31102 0.0562,-0.63771 -0.0817,-0.92627 -0.17499,-0.29446 -0.28246,-0.35806 -0.60708,-0.43969 -0.23172,-0.0722 -0.46511,-0.14598 -0.70719,-0.1691 -0.10982,-0.006 -0.14821,-0.0112 -0.25888,-2.1e-4 -0.0455,0.005 -0.18056,0.0317 -0.13599,0.0206 2.7854,-0.69962 1.84962,-0.48844 1.27395,-0.291 -0.23902,0.12382 -0.44483,0.29176 -0.63168,0.4904 -0.2257,0.29285 -0.40486,0.62449 -0.65732,0.8968 -0.17265,0.25252 -0.32781,0.52207 -0.54773,0.73493 -0.22273,0.21546 -0.41391,0.46063 -0.62977,0.68347 -0.17593,0.22827 -0.29562,0.50446 -0.5114,0.69799 -0.15583,0.21377 -0.30906,0.42757 -0.44423,0.65642 -0.18993,0.2379 -0.40247,0.45752 -0.61473,0.67337 -0.11228,0.12709 -0.22705,0.25544 -0.36665,0.3517 -0.22011,0.1518 -0.0126,-0.0249 -0.2258,0.13284 -0.0373,0.0278 -0.0706,0.0607 -0.10593,0.091 -0.22295,0.20877 -0.45384,0.39 -0.74074,0.49788 -0.61484,0.15208 -1.22917,0.30637 -1.84452,0.45623 -0.34618,0.0843 -0.69545,0.095 -1.03637,-0.0238 -0.3422,-0.10667 -0.69089,-0.20443 -1.01292,-0.36775 -0.26376,-0.15874 -0.45087,-0.36893 -0.55725,-0.67108 -0.15028,-0.39728 -0.27418,-0.80454 -0.3566,-1.2231 l 1.71446,-0.4238 z"
       inkscape:connector-curvature="0"
       sodipodi:nodetypes="cccccccccccccccccccccccccccccccccccccccccccccccc" />
    <path
       style="opacity:1;fill:#000000;fill-opacity:1;stroke:#000000;stroke-width:1.19822943;stroke-linecap:round;stroke-linejoin:round;stroke-miterlimit:4;stroke-dasharray:none;stroke-opacity:1"
       id="path918"
       d="m 22.82164,134.03131 c 0.295138,0.27393 0.50385,0.60282 0.662713,0.97592 0.133393,0.33115 0.109096,0.67326 0.0482,1.01694 -0.04954,0.31537 -0.06341,0.6349 -0.09874,0.95205 -0.04313,0.31453 -0.11887,0.62259 -0.200939,0.92817 -0.05558,0.1923 -1.693385,1.72373 -1.749707,1.91651 l -0.06679,-1.31482 v 0 c 0.05603,-0.19093 0.02855,-0.0957 0.08262,-0.28558 0.08395,-0.29654 0.164787,-0.59495 0.209912,-0.901 0.041,-0.32108 0.04945,-0.64444 0.09382,-0.965 0.06448,-0.30624 0.101759,-0.60985 -0.0177,-0.90899 -0.151162,-0.34984 -0.36167,-0.65505 -0.655234,-0.89336 l 1.691847,-0.52082 z"
       inkscape:connector-curvature="0"
       sodipodi:nodetypes="ccccccccccccccc" />
    <path
       style="opacity:1;fill:#000000;fill-opacity:1;stroke:#000000;stroke-width:1.19822943;stroke-linecap:round;stroke-linejoin:round;stroke-miterlimit:4;stroke-dasharray:none;stroke-opacity:1"
       id="path920"
       d="m 27.676372,136.12606 c 0.289909,0.45676 0.356984,1.00926 0.390236,1.54294 0.008,0.46524 -0.105014,0.91889 -0.137813,1.38123 -0.01432,0.32544 -0.05345,0.64793 -0.117358,0.96667 -0.03575,0.16892 -2.451018,1.6087 -2.497753,1.77458 l 0.632476,-0.95889 v 0 c 0.04705,-0.16201 0.09417,-0.32405 0.133064,-0.48843 0.06964,-0.30987 0.116788,-0.62405 0.129915,-0.94243 0.03184,-0.45673 0.150771,-0.90192 0.154159,-1.36104 -0.02134,-0.49113 -0.0715,-1.02057 -0.383414,-1.41419 z"
       inkscape:connector-curvature="0"
       sodipodi:nodetypes="ccccccccccccc" />
    <path
       style="opacity:1;fill:#000000;fill-opacity:1;stroke:#000000;stroke-width:1.19822943;stroke-linecap:round;stroke-linejoin:round;stroke-miterlimit:4;stroke-dasharray:none;stroke-opacity:1"
       id="path922"
       d="m 32.383296,136.62447 c 0.112698,0.19024 0.289411,0.33029 0.405684,0.51741 0.129533,0.20854 0.222416,0.45725 0.322939,0.68177 0.16581,0.41143 0.219908,0.85489 0.265532,1.29453 0.01005,0.32476 -0.02517,0.64945 -0.05265,0.97279 -0.0193,0.29407 -1.488845,2.31746 -1.474331,2.61219 l -0.274461,-1.35362 v 0 c -0.01859,-0.3041 0.0071,-0.60594 0.02099,-0.90974 0.03157,-0.31211 0.06412,-0.6259 0.06599,-0.93953 -0.03575,-0.42001 -0.08217,-0.84471 -0.241528,-1.23681 -0.0974,-0.21288 -0.185758,-0.44341 -0.315309,-0.63839 -0.123814,-0.1864 -0.292968,-0.33687 -0.42291,-0.51829 z"
       inkscape:connector-curvature="0"
       sodipodi:nodetypes="cccccccccccccc" />
    <path
       style="opacity:1;fill:#000000;fill-opacity:1;stroke:#000000;stroke-width:1.19822943;stroke-linecap:round;stroke-linejoin:round;stroke-miterlimit:4;stroke-dasharray:none;stroke-opacity:1"
       id="path924"
       d="m 37.933984,138.42982 c 0.197212,0.38138 0.399295,0.75971 0.599631,1.13915 0.146334,0.35242 0.13566,0.73799 0.142742,1.11385 0.01524,0.31256 -1.042362,2.48621 -0.990976,2.79334 l -0.597536,-1.47321 v 0 c -0.0514,-0.31623 -0.108287,-0.63081 -0.121956,-0.95236 -0.0104,-0.34528 -0.0036,-0.7047 -0.13004,-1.02957 -0.195656,-0.38337 -0.388297,-0.76983 -0.609593,-1.13803 z"
       inkscape:connector-curvature="0"
       sodipodi:nodetypes="cccccccccc" />
    <path
       style="opacity:1;fill:#ffffff;fill-opacity:1;stroke:#000000;stroke-width:1.19822943;stroke-linecap:round;stroke-linejoin:round;stroke-miterlimit:4;stroke-dasharray:none;stroke-opacity:1"
       id="path926"
       d="m 162.08746,140.06541 c -0.002,-0.44949 0.0336,-0.89575 0.10825,-1.33823 0.0741,-0.35784 0.14115,-0.72317 0.284,-1.05927 0.55255,-0.75767 1.63443,-0.76295 2.50815,-0.77708 0.36292,0.0243 0.71864,0.11767 1.06941,0.21311 0.2616,0.0737 0.52029,0.1578 0.77899,0.24164 0.25392,0.0832 0.50837,0.16466 0.76282,0.2461 0.28299,0.11973 0.34699,0.39023 0.35593,0.68005 -0.0109,0.2895 -0.0977,0.56752 -0.17669,0.84311 -0.20514,0.75283 0.0954,0.24332 -1.78111,0.44467 -0.0224,0.003 0.0115,-0.0456 0.0136,-0.0686 8.9e-4,-0.0232 -0.004,-0.0465 -0.005,-0.0697 -0.15554,-0.26434 -0.46009,-0.39729 -0.72287,-0.51848 -0.33764,-0.16445 -0.64903,-0.23698 -1.02059,-0.2274 -0.61089,0.11406 -1.62987,0.30054 1.17951,-0.27822 0.0441,-0.009 -0.0828,0.0369 -0.12197,0.0599 -0.13028,0.0764 -0.14976,0.10473 -0.26597,0.20899 -0.10214,0.0994 -0.17396,0.21954 -0.24211,0.34414 -0.003,0.005 -0.008,0.021 -0.009,0.0151 -0.005,-0.0281 -0.004,-0.0572 -0.004,-0.0858 0,0 -1.70247,0.53668 -1.70247,0.53668 v 0 c -0.0124,-0.0368 -0.0309,-0.0722 -0.0372,-0.1108 -0.024,-0.1475 0.19452,-0.36338 0.25694,-0.47564 0.62244,-0.74032 1.67844,-0.78103 2.58761,-0.84915 0.36951,0.0227 0.71454,0.12857 1.0467,0.29929 0.31123,0.16083 0.64608,0.34343 0.78493,0.69429 0.0101,0.0799 0.0294,0.20204 0.009,0.20748 -2.14994,0.57254 -1.93577,0.92549 -1.69843,0.18654 0.0764,-0.25784 0.15968,-0.51712 0.18393,-0.7871 0.002,-0.23873 -0.0566,-0.39375 -0.29589,-0.45934 -0.25472,-0.0823 -0.5096,-0.16408 -0.76454,-0.24568 -0.25537,-0.0822 -0.51087,-0.16447 -0.76955,-0.23482 -0.34518,-0.0896 -0.69639,-0.1756 -1.05469,-0.16506 -0.62131,0.0231 -1.47467,0.29921 1.24472,-0.35989 0.0461,-0.0111 -0.0919,0.0246 -0.13534,0.0439 -0.12325,0.0542 -0.13714,0.0804 -0.23734,0.16891 -0.17868,0.2994 -0.21001,0.67265 -0.30123,1.00729 -0.0785,0.42846 -0.12744,0.86262 -0.10349,1.29965 0,0 -1.72384,0.3701 -1.72384,0.3701 z"
       inkscape:connector-curvature="0" />
    <path
       style="opacity:1;fill:#ffffff;fill-opacity:1;stroke:#000000;stroke-width:1.19822943;stroke-linecap:round;stroke-linejoin:round;stroke-miterlimit:4;stroke-dasharray:none;stroke-opacity:1"
       id="path928"
       d="m 163.00861,137.71414 c -0.17299,-0.41901 -0.3128,-0.85525 -0.35006,-1.31058 -0.0164,-0.37334 0.0456,-0.74082 0.13154,-1.10144 0.0898,-0.32925 0.19198,-0.6547 0.28994,-0.98139 0.0497,-0.14451 0.073,-0.29936 0.14868,-0.43351 0.32362,-0.57329 1.77408,-0.56343 1.99304,-0.61528 0.0492,0.0149 0.10235,0.0196 0.14742,0.0446 0.27491,0.15347 0.51865,0.53403 0.66679,0.80789 0.23187,0.35861 0.39346,0.7576 0.58427,1.1397 0.15505,0.29921 0.16397,0.62721 0.12375,0.95579 -0.0507,0.34394 -0.11837,0.43316 -0.42601,0.55545 -0.23574,0.0573 -0.46454,0.11666 -0.68084,0.22951 0,0 -1.73552,0.36011 -1.73552,0.36011 v 0 c -0.002,-0.0514 -0.0201,-0.10494 -0.005,-0.15404 0.0589,-0.19804 0.50381,-0.26158 0.66544,-0.29912 0.0786,-0.0191 0.15367,-0.052 0.23235,-0.0707 0.0288,-0.006 0.0611,0.006 0.0886,-0.006 0.0978,-0.0407 0.11155,-0.18935 0.13162,-0.27512 0.0474,-0.29307 0.049,-0.57908 -0.092,-0.84825 -0.18374,-0.38207 -0.34655,-0.77587 -0.5785,-1.13087 -0.16806,-0.29 -0.39695,-0.66646 -0.76326,-0.64662 0.52378,-0.13344 1.04754,-0.26697 1.57134,-0.40036 0.0319,-0.008 -0.0658,0.011 -0.0959,0.0247 -0.0662,0.0303 -0.12195,0.0841 -0.15411,0.15184 -0.0445,0.0941 -0.0465,0.20587 -0.0923,0.29948 -0.0991,0.32293 -0.19744,0.64619 -0.28806,0.97181 -0.0904,0.3407 -0.1642,0.68792 -0.15483,1.04377 0.0327,0.43569 0.16201,0.85892 0.3508,1.24918 0,0 -1.70938,0.43913 -1.70938,0.43913 z"
       inkscape:connector-curvature="0" />
    <path
       style="opacity:1;fill:#ffffff;fill-opacity:1;stroke:#000000;stroke-width:1.19822943;stroke-linecap:round;stroke-linejoin:round;stroke-miterlimit:4;stroke-dasharray:none;stroke-opacity:1"
       id="path930"
       d="m 164.00167,133.56219 c -0.22498,-0.36161 -0.34768,-0.74889 -0.40384,-1.17315 -0.0699,-1.14553 0.72841,-0.8134 1.95123,-1.11352 0.0349,0.006 0.0695,0.0132 0.10441,0.0197 0,0 -1.6552,0.63973 -1.6552,0.63973 v 0 c -0.031,0.005 -0.0619,0.0101 -0.0929,0.0151 0.53758,-0.13541 1.07622,-0.26644 1.61276,-0.40625 0.034,-0.009 -0.0916,-0.0163 -0.14726,0.0502 -0.0912,0.10872 -0.0636,0.2805 -0.063,0.4085 0.0453,0.40201 0.16835,0.75974 0.39905,1.08998 0,0 -1.70525,0.46964 -1.70525,0.46964 z"
       inkscape:connector-curvature="0" />
    <path
       style="opacity:1;fill:#ffffff;fill-opacity:1;stroke:#000000;stroke-width:1.19822943;stroke-linecap:round;stroke-linejoin:round;stroke-miterlimit:4;stroke-dasharray:none;stroke-opacity:1"
       id="path932"
       d="m 177.12302,159.13845 c 0.37023,-0.0316 0.73928,0.014 1.10357,0.0796 0.40607,0.068 0.65746,0.42535 0.8829,0.75174 0.21844,0.29243 0.36748,0.63117 0.49519,0.97427 0.12027,0.39018 0.1078,0.79629 0.0542,1.19644 -0.0538,0.35622 -0.16279,0.69931 -0.26412,1.0431 -0.35154,1.19511 -0.46698,0.76198 -2.14574,1.13922 -0.0311,-0.0208 -0.0623,-0.0415 -0.0934,-0.0625 0,0 1.67614,-0.58455 1.67614,-0.58455 v 0 c 0.0233,-2.8e-4 0.0467,-8.6e-4 0.0699,-9.2e-4 -0.53726,0.13322 -1.07627,0.25907 -1.61177,0.39966 -0.031,0.008 0.0662,0.0103 0.096,-0.002 0.036,-0.0142 0.0663,-0.0431 0.0915,-0.073 0.11746,-0.14225 0.12855,-0.33674 0.19093,-0.50481 0.10001,-0.33547 0.20203,-0.67143 0.26773,-1.01639 0.0587,-0.36823 0.0833,-0.74453 -0.0379,-1.10358 -0.12206,-0.32906 -0.2684,-0.6489 -0.47778,-0.92928 -0.22156,-0.30636 -0.45579,-0.57965 -0.84559,-0.61525 -0.36381,-0.0547 -0.73143,-0.0827 -1.0976,-0.0305 0,0 1.64568,-0.66108 1.64568,-0.66108 z"
       inkscape:connector-curvature="0" />
    <path
       style="opacity:1;fill:#ffffff;fill-opacity:1;stroke:#000000;stroke-width:1.19822943;stroke-linecap:round;stroke-linejoin:round;stroke-miterlimit:4;stroke-dasharray:none;stroke-opacity:1"
       id="path934"
       d="m 180.50056,158.36187 c 0.23304,0.0988 0.4898,0.13621 0.72206,0.23597 0.14611,0.0626 0.25551,0.14462 0.38777,0.23283 0.41636,0.41044 0.72419,0.9293 1.01352,1.44043 0.25415,0.4221 0.26483,0.86508 0.19388,1.34076 -0.0683,0.38407 -0.1838,0.75268 -0.3427,1.1058 -0.14187,0.33811 -2.13888,1.48631 -2.43791,2.24856 0.0605,-1.36464 -1.06124,0.0575 -0.67688,-0.84658 -0.0572,0.85539 1.06362,-0.60183 0.48004,-0.55015 v 0 c 0.0479,-0.0192 0.0956,-0.0389 0.14329,-0.0584 0.27274,-0.14095 0.59486,-0.21354 0.75391,-0.50859 0.1634,-0.33736 0.29972,-0.68074 0.36102,-1.0563 0.0788,-0.45444 0.0797,-0.80949 -0.15449,-1.22138 -0.27363,-0.48828 -0.5701,-0.99374 -0.99895,-1.35073 -0.34898,-0.20235 -0.73066,-0.30799 -1.11382,-0.42088 l 1.66927,-0.59116 z"
       inkscape:connector-curvature="0"
       sodipodi:nodetypes="cccccccccccccccccc" />
    <path
       style="opacity:1;fill:#ffffff;fill-opacity:1;stroke:#000000;stroke-width:1.19822943;stroke-linecap:round;stroke-linejoin:round;stroke-miterlimit:4;stroke-dasharray:none;stroke-opacity:1"
       id="path936"
       d="m 180.86269,158.88544 c 0.23332,0.39767 0.30511,0.84224 0.30295,1.30049 -0.012,0.39937 -0.13871,0.77962 -0.21757,1.16707 -0.0643,0.34439 -0.12801,0.68876 -0.21177,1.0287 -0.0135,0.0524 -0.0278,0.10454 -0.0405,0.15723 0,0 -1.73004,0.31762 -1.73004,0.31762 v 0 c 0.0132,-0.0517 0.0283,-0.10288 0.0415,-0.15465 0.0845,-0.33675 0.15949,-0.67598 0.21427,-1.01947 0.0711,-0.37952 0.2116,-0.74543 0.23025,-1.13552 0.0112,-0.42689 -0.0487,-0.83758 -0.29168,-1.1951 0,0 1.70267,-0.46631 1.70267,-0.46631 z"
       inkscape:connector-curvature="0" />
    <path
       style="opacity:1;fill:#ffffff;fill-opacity:1;stroke:#000000;stroke-width:1.19822943;stroke-linecap:round;stroke-linejoin:round;stroke-miterlimit:4;stroke-dasharray:none;stroke-opacity:1"
       id="path938"
       d="m 183.23505,157.97217 c 0.41752,0.24216 0.85141,0.45597 1.25945,0.71535 0.2761,0.23122 0.4352,0.55578 0.51948,0.90709 0.0261,0.31225 -0.0256,0.62652 -0.054,0.93794 -0.0342,0.28276 -0.10306,0.559 -0.17628,0.83309 -0.0675,0.23696 -0.13665,0.47338 -0.20923,0.70872 0,0 -1.73222,0.3118 -1.73222,0.3118 v 0 c 0.0689,-0.23458 0.14073,-0.46828 0.20574,-0.70409 0.0735,-0.26385 0.14557,-0.52925 0.18185,-0.8019 0.0315,-0.29112 0.0776,-0.58494 0.0684,-0.87727 -0.0708,-0.30847 -0.21606,-0.58756 -0.47186,-0.77215 -0.40961,-0.25382 -0.83396,-0.48444 -1.26826,-0.68935 0,0 1.6761,-0.56952 1.6761,-0.56952 z"
       inkscape:connector-curvature="0" />
    <path
       style="opacity:1;fill:#ffffff;fill-opacity:1;stroke:#000000;stroke-width:1.19822943;stroke-linecap:round;stroke-linejoin:round;stroke-miterlimit:4;stroke-dasharray:none;stroke-opacity:1"
       id="path940"
       d="m 154.72574,174.90458 c -0.28757,0.28169 -0.5742,0.56369 -0.82171,0.88438 -0.16068,0.22997 -0.30795,0.4777 -0.33808,0.76419 -0.0302,0.31931 0.14108,0.54994 0.32331,0.78395 0.25851,0.28191 0.61201,0.41546 0.95571,0.54736 0.41431,0.15094 0.83541,0.28061 1.25583,0.4117 0.15236,0.0468 0.3044,0.0946 0.45647,0.14225 0,0 -1.664,0.59003 -1.664,0.59003 v 0 c -0.15016,-0.0481 -0.30036,-0.096 -0.45049,-0.14421 -0.41941,-0.13501 -0.83857,-0.2713 -1.25186,-0.42559 -0.36922,-0.14781 -0.73422,-0.31493 -0.99428,-0.6377 -0.20208,-0.27052 -0.38013,-0.55767 -0.35855,-0.91543 0.0174,-0.32539 0.14903,-0.60559 0.32976,-0.87008 0.2409,-0.33157 0.52851,-0.61462 0.80674,-0.91149 0,0 1.75105,-0.21905 1.75105,-0.21905 z"
       inkscape:connector-curvature="0" />
    <path
       style="opacity:1;fill:#ffffff;fill-opacity:1;stroke:#000000;stroke-width:1.19822943;stroke-linecap:round;stroke-linejoin:round;stroke-miterlimit:4;stroke-dasharray:none;stroke-opacity:1"
       id="path942"
       d="m 153.01122,177.32299 c -0.26409,0.24145 -0.47484,0.53265 -0.64965,0.84764 -0.10989,0.21167 -0.22571,0.47698 -0.0212,0.65966 0.23232,0.1827 0.46981,0.35891 0.72685,0.5027 0.15067,0.0806 0.31017,0.14024 0.46976,0.19833 0,0 -1.6709,0.58091 -1.6709,0.58091 v 0 c -0.16282,-0.0661 -0.32464,-0.13558 -0.47577,-0.22768 -0.26302,-0.16413 -0.52,-0.34581 -0.74767,-0.55959 -0.20789,-0.29451 -0.16841,-0.56157 -0.0177,-0.88011 0.17135,-0.33024 0.38027,-0.63532 0.63514,-0.90285 0,0 1.75106,-0.21902 1.75106,-0.21902 z"
       inkscape:connector-curvature="0" />
    <path
       style="opacity:1;fill:#ffffff;fill-opacity:1;stroke:#000000;stroke-width:1.19822943;stroke-linecap:round;stroke-linejoin:round;stroke-miterlimit:4;stroke-dasharray:none;stroke-opacity:1"
       id="path944"
       d="m 151.53726,179.31152 c -0.31845,0.20038 -0.59643,0.43527 -0.81724,0.74677 -0.027,0.0448 -0.0534,0.0904 -0.0805,0.13533 0,0 -1.73699,0.26994 -1.73699,0.26994 v 0 c 0.0271,-0.0497 0.0538,-0.0995 0.0806,-0.14937 0.21019,-0.3303 0.46404,-0.60921 0.80232,-0.80214 0,0 1.75184,-0.2005 1.75184,-0.2005 z"
       inkscape:connector-curvature="0" />
    <path
       style="opacity:1;fill:#ffffff;fill-opacity:1;stroke:#000000;stroke-width:1.19822943;stroke-linecap:round;stroke-linejoin:round;stroke-miterlimit:4;stroke-dasharray:none;stroke-opacity:1"
       id="path946"
       d="m 162.92697,166.74619 c 0.43565,0.06 0.88729,0.0994 1.29463,0.27824 0.42521,0.26401 0.29413,0.76272 0.16112,1.1678 -0.11767,0.32024 -0.25084,0.6305 -0.47138,0.8882 0,0 -1.74612,0.21825 -1.74612,0.21825 v 0 c 0.25734,-0.20197 0.37591,-0.50293 0.49783,-0.80541 0.1214,-0.32756 0.28949,-0.7048 -0.10047,-0.8929 -0.41468,-0.1395 -0.85536,-0.19693 -1.28998,-0.21448 0,0 1.65436,-0.6397 1.65436,-0.6397 z"
       inkscape:connector-curvature="0" />
    <path
       style="opacity:1;fill:#ffffff;fill-opacity:1;stroke:#000000;stroke-width:1.19822943;stroke-linecap:round;stroke-linejoin:round;stroke-miterlimit:4;stroke-dasharray:none;stroke-opacity:1"
       id="path948"
       d="m 165.27615,168.58605 c 0.0835,0.16097 0.1514,0.32917 0.22953,0.49293 0,0 -1.70014,0.44541 -1.70014,0.44541 v 0 c -0.074,-0.15838 -0.13964,-0.32211 -0.23464,-0.46871 0,0 1.70525,-0.46963 1.70525,-0.46963 z"
       inkscape:connector-curvature="0" />
    <path
       style="opacity:1;fill:#ffffff;fill-opacity:1;stroke:#000000;stroke-width:1.19822943;stroke-linecap:round;stroke-linejoin:round;stroke-miterlimit:4;stroke-dasharray:none;stroke-opacity:1"
       id="path950"
       d="m 167.06496,168.84625 c 0.0399,0.0413 0.0798,0.0827 0.11961,0.12414 0,0 -1.68451,0.51015 -1.68451,0.51015 v 0 c -0.0424,-0.0375 -0.0847,-0.0756 -0.12699,-0.11339 0,0 1.69186,-0.52086 1.69186,-0.52086 z"
       inkscape:connector-curvature="0" />
    <path
       style="opacity:1;fill:#ffffff;fill-opacity:1;stroke:#000000;stroke-width:1.19822943;stroke-linecap:round;stroke-linejoin:round;stroke-miterlimit:4;stroke-dasharray:none;stroke-opacity:1"
       id="path952"
       d="m 160.41081,151.48396 c -0.26096,-0.11113 -0.52397,-0.11508 -0.79765,-0.0601 -0.0784,0.0158 -0.31093,0.0738 -0.23281,0.0573 0.48162,-0.10212 0.96223,-0.20932 1.44334,-0.31398 -0.38223,0.15933 -0.7542,0.34261 -1.10678,0.56372 -0.28572,0.17182 -0.54801,0.37783 -0.79455,0.60489 -0.24687,0.22308 -0.40234,0.5117 -0.53181,0.81796 -0.15762,0.4155 -0.2813,0.84388 -0.40606,1.27091 -0.0547,0.24663 -0.12128,0.56476 -0.006,0.80856 0.0204,0.0431 0.0542,0.0779 0.0815,0.11673 0.18959,0.26178 0.45082,0.43213 0.73356,0.56548 0.27045,0.12005 0.55032,0.2053 0.84599,0.19809 0.039,-0.0115 0.0782,-0.0231 0.11716,-0.0347 0,0 -1.64127,0.66588 -1.64127,0.66588 v 0 c -0.0422,2.1e-4 -0.0842,5.4e-4 -0.12642,7.4e-4 -0.30349,-0.0399 -0.59513,-0.12609 -0.86978,-0.2683 -0.2952,-0.16478 -0.56127,-0.37252 -0.75623,-0.66037 -0.0322,-0.0563 -0.0712,-0.10891 -0.0965,-0.16889 -0.11923,-0.2823 -0.0655,-0.62725 -0.002,-0.91321 0.12847,-0.42953 0.24938,-0.86184 0.39274,-1.28634 0.12494,-0.32855 0.27579,-0.64656 0.52379,-0.89584 0.24016,-0.23995 0.49727,-0.46767 0.78982,-0.63636 0.34813,-0.24622 0.7323,-0.42602 1.11684,-0.60167 0.63717,-0.16712 1.27282,-0.34058 1.9115,-0.50133 0.36871,-0.0928 0.73956,-0.0494 1.08711,0.10141 0,0 -1.67611,0.56952 -1.67611,0.56952 z"
       inkscape:connector-curvature="0" />
    <path
       style="opacity:1;fill:#ffffff;fill-opacity:1;stroke:#000000;stroke-width:1.19822943;stroke-linecap:round;stroke-linejoin:round;stroke-miterlimit:4;stroke-dasharray:none;stroke-opacity:1"
       id="path954"
       d="m 158.12171,152.51963 c -0.38736,0.11436 -0.67038,0.38562 -0.90738,0.71065 -0.15875,0.2335 -0.2546,0.50082 -0.3408,0.76967 -0.0814,0.23347 -0.13718,0.35479 0.0144,0.56337 0,0 -1.70333,0.46876 -1.70333,0.46876 v 0 c -0.13678,-0.24542 -0.1569,-0.45823 -0.0478,-0.72244 0.0892,-0.28578 0.18452,-0.57158 0.34151,-0.82643 0.22769,-0.34528 0.50118,-0.66695 0.88604,-0.82319 0,0 1.75725,-0.14039 1.75725,-0.14039 z"
       inkscape:connector-curvature="0" />
    <path
       style="opacity:1;fill:#ffffff;fill-opacity:1;stroke:#000000;stroke-width:1.19822943;stroke-linecap:round;stroke-linejoin:round;stroke-miterlimit:4;stroke-dasharray:none;stroke-opacity:1"
       id="path956"
       d="m 169.84141,145.69506 c 0.1481,0.35414 0.45286,0.59592 0.76123,0.7936 0,0 -1.67527,0.53846 -1.67527,0.53846 v 0 c -0.32351,-0.23644 -0.62747,-0.51669 -0.79914,-0.89457 0,0 1.71318,-0.43749 1.71318,-0.43749 z"
       inkscape:connector-curvature="0" />
    <path
       style="opacity:1;fill:#ffffff;fill-opacity:1;stroke:#000000;stroke-width:1.19822943;stroke-linecap:round;stroke-linejoin:round;stroke-miterlimit:4;stroke-dasharray:none;stroke-opacity:1"
       id="path958"
       d="m 169.56022,147.89381 c 0.37137,0.11112 0.73347,0.27329 1.11605,0.33742 0.59299,-0.0543 1.62673,-0.30845 -1.33738,0.32458 -0.0314,0.006 0.0597,-0.0252 0.0864,-0.0435 0.0667,-0.0455 0.0844,-0.0813 0.132,-0.1462 0.0167,-0.0318 0.0341,-0.0635 0.0511,-0.0953 0,0 1.74253,-0.28507 1.74253,-0.28507 v 0 c -0.0158,0.0382 -0.032,0.0761 -0.0477,0.11437 -0.40065,0.78855 -1.47759,0.83629 -2.28387,0.735 -0.3795,-0.10446 -0.74934,-0.24368 -1.12844,-0.3501 0,0 1.66928,-0.59114 1.66928,-0.59114 z"
       inkscape:connector-curvature="0" />
    <path
       style="opacity:1;fill:#ffffff;fill-opacity:1;stroke:#000000;stroke-width:1.19822943;stroke-linecap:round;stroke-linejoin:round;stroke-miterlimit:4;stroke-dasharray:none;stroke-opacity:1"
       id="path960"
       d="m 168.0407,152.90202 c 0.52501,0.0284 0.75338,0.3823 0.92077,0.85319 0.14749,0.4825 0.20571,0.98799 0.2023,1.49258 -0.004,0.0743 -0.009,0.14874 -0.0135,0.2231 0,0 -1.71489,0.35025 -1.71489,0.35025 v 0 c 0.006,-0.071 0.0119,-0.14196 0.0178,-0.21296 0.0103,-0.48193 -0.041,-0.96564 -0.18553,-1.42568 -0.17707,-0.4546 -0.39154,-0.65154 -0.8814,-0.6408 0,0 1.65436,-0.6397 1.65436,-0.6397 z"
       inkscape:connector-curvature="0" />
    <path
       style="opacity:1;fill:#ffffff;fill-opacity:1;stroke:#000000;stroke-width:1.19822943;stroke-linecap:round;stroke-linejoin:round;stroke-miterlimit:4;stroke-dasharray:none;stroke-opacity:1"
       id="path962"
       d="m 167.58287,153.73771 c 0.24823,0.41066 0.46913,0.83795 0.68372,1.26892 0.17828,0.38018 0.20152,0.80988 0.27701,1.21986 0.076,0.35212 0.0382,0.70701 0.025,1.06185 0.005,0.0426 0.0104,0.0855 0.0156,0.12814 0,0 -1.71857,0.39115 -1.71857,0.39115 v 0 c -0.008,-0.0534 -0.016,-0.10686 -0.0241,-0.16032 0.014,-0.34168 0.0722,-0.68309 -0.005,-1.02353 -0.0723,-0.39302 -0.0971,-0.80403 -0.26001,-1.17115 -0.21171,-0.43377 -0.43533,-0.86084 -0.70123,-1.26177 0,0 1.70773,-0.45319 1.70773,-0.45319 z"
       inkscape:connector-curvature="0" />
    <path
       style="opacity:1;fill:#ffffff;fill-opacity:1;stroke:#000000;stroke-width:1.19822943;stroke-linecap:round;stroke-linejoin:round;stroke-miterlimit:4;stroke-dasharray:none;stroke-opacity:1"
       id="path964"
       d="m 170.31978,154.97747 c 0.25007,0.37378 0.46579,0.66794 0.54552,1.12444 0.0322,0.3596 0.016,0.71699 -0.0419,1.0722 -0.0197,0.15496 -0.036,0.31013 -0.0565,0.46499 0,0 -1.72617,0.34073 -1.72617,0.34073 v 0 c 0.0212,-0.15714 0.0392,-0.31453 0.0558,-0.47227 0.0617,-0.33394 0.0832,-0.66997 0.0591,-1.00992 -0.0687,-0.40502 -0.30097,-0.73146 -0.54112,-1.05051 0,0 1.70526,-0.46963 1.70526,-0.46963 z"
       inkscape:connector-curvature="0" />
    <path
       style="opacity:1;fill:#ffffff;fill-opacity:1;stroke:#000000;stroke-width:1.19822943;stroke-linecap:round;stroke-linejoin:round;stroke-miterlimit:4;stroke-dasharray:none;stroke-opacity:1"
       id="path966"
       d="m 171.30002,146.64456 c 0.40482,0.13826 0.8129,0.26599 1.22013,0.39631 0.20757,0.0672 0.41568,0.13249 0.62382,0.19772 0,0 -1.65562,0.5863 -1.65562,0.5863 v 0 c -0.20637,-0.067 -0.41271,-0.13406 -0.61934,-0.20017 -0.41215,-0.13166 -0.82372,-0.26555 -1.23786,-0.39039 0,0 1.66929,-0.59115 1.66929,-0.59115 z"
       inkscape:connector-curvature="0" />
    <path
       style="opacity:1;fill:#ffffff;fill-opacity:1;stroke:#000000;stroke-width:1.19822943;stroke-linecap:round;stroke-linejoin:round;stroke-miterlimit:4;stroke-dasharray:none;stroke-opacity:1"
       id="path968"
       d="m 187.18621,159.21657 c 0.0216,0.23082 -2.34026,3.58149 -1.97374,1.48873 l -0.62279,-1.03075 v 0 c -0.26739,-2.1562 1.79641,-2.08604 2.59653,-0.45798 z"
       inkscape:connector-curvature="0"
       sodipodi:nodetypes="cccccc" />
    <path
       style="opacity:1;fill:#ffffff;fill-opacity:1;stroke:#000000;stroke-width:1.19822943;stroke-linecap:round;stroke-linejoin:round;stroke-miterlimit:4;stroke-dasharray:none;stroke-opacity:1"
       id="path970"
       d="m 175.74027,165.56582 c 0.0735,0.48046 0.32454,0.84071 0.67899,1.14221 0.33601,0.25633 0.6567,0.39231 1.07458,0.37396 0.60846,-0.1123 0.94532,-0.17689 -1.36863,0.31848 -0.0452,0.01 0.0892,-0.0267 0.13027,-0.0484 0.1421,-0.075 0.2188,-0.19946 0.30274,-0.33314 0.19864,-0.37874 0.43673,-0.73247 0.64961,-1.10232 0.1308,-0.20975 0.24845,-0.42702 0.35783,-0.64936 0,0 1.73314,-0.28135 1.73314,-0.28135 v 0 c -0.10838,0.22683 -0.22097,0.45214 -0.35795,0.66224 -0.21118,0.37021 -0.4615,0.71528 -0.64576,1.10175 -0.0787,0.1498 -0.16096,0.3249 -0.28781,0.43918 -0.0383,0.0345 -0.0813,0.0683 -0.13012,0.0815 -1.68283,0.44142 -1.23764,0.41038 -2.02594,0.44562 -0.4165,-0.0409 -0.7829,-0.21572 -1.10435,-0.4952 -0.36437,-0.34698 -0.61958,-0.75124 -0.72622,-1.25921 0,0 1.71986,-0.39572 1.71986,-0.39572 z"
       inkscape:connector-curvature="0" />
    <path
       style="opacity:1;fill:#ffffff;fill-opacity:1;stroke:#000000;stroke-width:1.19822943;stroke-linecap:round;stroke-linejoin:round;stroke-miterlimit:4;stroke-dasharray:none;stroke-opacity:1"
       id="path972"
       d="m 177.18193,168.209 c 0.0248,0.35547 0.11647,0.68839 0.34511,0.9582 0.15491,0.15209 0.32081,0.22862 0.53245,0.21638 0,0 -1.65573,0.62604 -1.65573,0.62604 v 0 c -0.22824,-0.0542 -0.4187,-0.16984 -0.57169,-0.3573 -0.22196,-0.31336 -0.32526,-0.67376 -0.37526,-1.05745 0,0 1.72513,-0.38591 1.72513,-0.38591 z"
       inkscape:connector-curvature="0" />
    <path
       style="opacity:1;fill:#ffffff;fill-opacity:1;stroke:#000000;stroke-width:1.19822943;stroke-linecap:round;stroke-linejoin:round;stroke-miterlimit:4;stroke-dasharray:none;stroke-opacity:1"
       id="path974"
       d="m 171.29948,180.81436 c -0.10245,0.42228 -0.12137,0.8586 -0.15247,1.2909 -0.01,0.28476 0.007,0.56521 0.0494,0.84601 0.0181,0.2014 0.0572,0.42576 0.22398,0.54871 0.24185,0.15596 0.51627,0.24469 0.78531,0.33554 0.35333,0.088 0.592,0.30441 0.74139,0.64163 0.12581,0.32257 0.11787,0.67635 0.13206,1.01857 -0.13206,-1.01857 0.0718,-0.31032 0,0 v 0 l -0.77488,1.7401 c 0.0739,-0.29332 -0.93312,-1.06293 -0.94318,-1.36842 -0.01,-0.31709 -0.003,-0.64676 -0.11983,-0.94522 -0.1511,-0.31277 -0.38892,-0.40881 -0.70074,-0.5022 -0.2846,-0.10333 -0.57834,-0.20537 -0.81319,-0.40875 -0.15973,-0.18719 -0.23873,-0.41503 -0.25087,-0.666 -0.0444,-0.29636 -0.0646,-0.59025 -0.0465,-0.89089 0.0382,-0.43568 0.0573,-0.87394 0.13579,-1.30474 l 1.73387,-0.33536 z"
       inkscape:connector-curvature="0"
       sodipodi:nodetypes="ccccccccccccccccccc" />
    <path
       style="opacity:1;fill:#ffffff;fill-opacity:1;stroke:#000000;stroke-width:1.19822943;stroke-linecap:round;stroke-linejoin:round;stroke-miterlimit:4;stroke-dasharray:none;stroke-opacity:1"
       id="path976"
       d="m 170.96564,176.65333 c 1.0232,-0.27736 2.04506,-0.63447 3.10608,-0.52606 0.34762,0.0578 0.70821,0.1077 1.02973,0.26337 0.20779,0.13515 0.33114,0.34862 0.46347,0.55433 0,0 -1.70135,0.47044 -1.70135,0.47044 v 0 c -0.11537,-0.18076 -0.2326,-0.36094 -0.43227,-0.45002 -0.32199,-0.11426 -0.65866,-0.18158 -0.99723,-0.21479 -0.23633,-0.0113 -0.46417,-0.0111 -0.69937,0.0221 -0.084,0.0119 -0.33288,0.0644 -0.25059,0.0435 0.47898,-0.12115 0.9608,-0.22983 1.44119,-0.34474 -0.0679,0.0177 -0.1357,0.0352 -0.20356,0.0529 0,0 -1.75611,0.12901 -1.75611,0.12901 z"
       inkscape:connector-curvature="0" />
    <path
       style="opacity:1;fill:#ffffff;fill-opacity:1;stroke:#000000;stroke-width:1.19822943;stroke-linecap:round;stroke-linejoin:round;stroke-miterlimit:4;stroke-dasharray:none;stroke-opacity:1"
       id="path978"
       d="m 179.38248,142.47639 c 0.3529,-0.0229 0.70357,0.0212 1.05242,0.071 0,0 -1.6434,0.61493 -1.6434,0.61493 v 0 c -0.35348,-0.0432 -0.70685,-0.0593 -1.06276,-0.0582 0,0 1.65374,-0.62784 1.65374,-0.62784 z"
       inkscape:connector-curvature="0" />
    <path
       style="fill:none;stroke:#000000;stroke-width:0.23964588px;stroke-linecap:butt;stroke-linejoin:miter;stroke-opacity:1"
       d="m 145.35587,130.73244 c 0.13806,0.0157 0.27983,0.0107 0.41425,0.047 0.0214,0.006 0.004,0.046 0.0109,0.068 0.004,0.0149 0.049,0.10574 0.059,0.11561 0.007,0.007 0.0269,-9.2e-4 0.0284,0.009 0.004,0.0203 -0.0117,0.0392 -0.0175,0.0589 -0.009,0.0294 -0.0243,0.0576 -0.0263,0.0883 -8.9e-4,0.0142 0.0157,0.0246 0.0196,0.0386 0.006,0.022 0.0103,0.045 0.0109,0.068 6.6e-4,0.0104 -0.0134,0.0203 -0.009,0.0294 0.004,0.009 0.0189,0.006 0.0284,0.009 0.004,0.0227 0.0103,0.045 0.0109,0.068 7.1e-4,0.0262 -0.0385,0.0961 -0.035,0.11785 0.0248,0.15555 0.0254,-0.1287 0.0305,0.1065 6.6e-4,0.0104 -0.0159,0.0223 -0.009,0.0294 0.0143,0.0142 0.0425,0.004 0.0567,0.0182 0.0143,0.0142 -0.0207,0.0388 -0.0175,0.0589 0.003,0.0143 0.0173,0.0242 0.0196,0.0386 0.0133,0.0837 -0.0745,-0.053 0.002,0.0974 0.004,0.009 0.005,-0.0197 0.009,-0.0294 0.005,-0.0197 0.0221,-0.0391 0.0175,-0.0589 -0.0101,-0.0423 -0.0435,-0.075 -0.059,-0.11561 -0.008,-0.0213 -0.003,-0.0467 -0.0109,-0.068 -0.0154,-0.0405 -0.0427,-0.0754 -0.059,-0.11563 -0.0738,-0.18356 -0.002,-0.0358 -0.0413,-0.17449 -0.004,-0.014 -0.0157,-0.0246 -0.0196,-0.0386 -0.006,-0.0221 -0.004,-0.046 -0.0109,-0.068 -0.004,-0.014 -0.0132,-0.0258 -0.0196,-0.0386 -0.006,-0.0128 -0.006,-0.0342 -0.0196,-0.0386 -0.009,-0.003 -0.005,0.0197 -0.009,0.0294 -0.005,0.0197 -0.0117,0.0392 -0.0175,0.0589 -0.0146,0.0491 -0.0293,0.0981 -0.0438,0.14723 -0.0175,0.0588 -0.035,0.11784 -0.0526,0.17671 -0.004,0.009 -0.0134,0.0203 -0.009,0.0294 0.004,0.009 0.0189,0.006 0.0284,0.009 0.0504,0.0162 0.0533,0.0323 0.0939,-0.002 0.0172,-0.0146 0.0344,-0.0303 0.0459,-0.0498 0.01,-0.0177 0.0117,-0.0392 0.0175,-0.0589 0.0175,-0.0589 0.035,-0.11784 0.0526,-0.1767 0.004,-0.009 0.005,-0.0197 0.009,-0.0294 0.004,-0.009 0.0134,-0.0203 0.009,-0.0294 -0.004,-0.009 -0.019,-0.006 -0.0284,-0.009 -0.0189,-0.006 -0.042,-0.005 -0.0567,-0.0182 -0.13976,-0.1266 -0.26869,-0.2655 -0.40305,-0.39825"
       id="path997"
       inkscape:connector-curvature="0" />
    <path
       style="fill:#ffffff;stroke:#000000;stroke-width:0.23964588px;stroke-linecap:butt;stroke-linejoin:miter;stroke-opacity:1"
       d="m 142.48838,137.21156 c -0.0505,0.0862 -0.0984,0.13609 -0.0699,0.23563 -0.0197,0.0576 0.0377,0.0273 0.0479,0.0476 0.009,0.018 -0.0207,0.0387 -0.0175,0.0589 0.004,0.0287 0.0388,0.0481 0.0392,0.077 5.1e-4,0.0205 -0.0268,0.0408 -0.0175,0.0588 0.009,0.0181 0.0407,0.006 0.0567,0.0182 0.0228,0.0169 0.0141,0.0641 0.0392,0.077 0.12351,0.0636 0.25387,0.11194 0.3808,0.16793"
       id="path1001"
       inkscape:connector-curvature="0" />
    <path
       style="fill:none;stroke:#000000;stroke-width:0.23964588px;stroke-linecap:butt;stroke-linejoin:miter;stroke-opacity:1"
       d="m 142.94738,137.95277 c -0.002,-0.0266 -0.002,-0.0529 -0.003,-0.0793 -0.006,-0.0128 -0.0173,-0.0242 -0.0196,-0.0386 -0.002,-0.0102 0.0134,-0.0203 0.009,-0.0294 -0.004,-0.009 -0.0212,-0.002 -0.0284,-0.009 -0.01,-0.01 -0.0546,-0.10061 -0.059,-0.11562 -0.006,-0.022 0.003,-0.0501 -0.0109,-0.068 -0.0484,-0.0616 -0.0631,0.0273 -0.0764,-0.0567 -0.004,-0.0203 0.0267,-0.0408 0.0175,-0.0589 -0.004,-0.009 -0.0237,1.5e-4 -0.0284,-0.009 -0.0406,-0.0797 0.089,0.0314 -0.0109,-0.068 -0.0143,-0.0142 -0.0625,0.002 -0.0567,-0.0182 0.004,-0.009 0.0382,0.007 0.0284,0.009 -0.0962,0.0166 -0.19371,0.024 -0.29056,0.036"
       id="path1015"
       inkscape:connector-curvature="0" />
    <path
       style="fill:none;stroke:#000000;stroke-width:0.23964588px;stroke-linecap:butt;stroke-linejoin:miter;stroke-opacity:1"
       d="m 143.04192,138.90456 -0.55354,-1.693"
       id="path1017"
       inkscape:connector-curvature="0" />
    <ellipse
       style="opacity:1;fill:#000000;fill-opacity:1;stroke:#000000;stroke-width:1.19835663;stroke-linecap:round;stroke-linejoin:round;stroke-miterlimit:4;stroke-dasharray:none;stroke-opacity:1"
       id="path1019"
       cx="95.666641"
       cy="96.287766"
       rx="1.3279529"
       ry="1.4338309"
       transform="matrix(0.95240545,0.30483415,-0.28515287,0.95848205,0,0)" />
    <ellipse
       style="opacity:1;fill:#000000;fill-opacity:1;stroke:#000000;stroke-width:1.19835663;stroke-linecap:round;stroke-linejoin:round;stroke-miterlimit:4;stroke-dasharray:none;stroke-opacity:1"
       id="path1021"
       cx="103.21518"
       cy="96.291496"
       rx="1.5598177"
       ry="1.5424544"
       transform="matrix(0.95240545,0.30483415,-0.28515287,0.95848205,0,0)" />
  </g>
</svg>
